<svg width="272" height="108" viewBox="0 0 272 108" fill="none" xmlns="http://www.w3.org/2000/svg">
<path fill-rule="evenodd" clip-rule="evenodd" d="M79.5294 17H271V107H1V17H56V1L79.5294 17Z" fill="white" fill-opacity="0.15"/>
<path d="M79.5294 17L79.2483 17.4135L79.3755 17.5H79.5294V17ZM271 17H271.5V16.5H271V17ZM271 107V107.5H271.5V107H271ZM1 107H0.5V107.5H1V107ZM1 17V16.5H0.5V17H1ZM56 17V17.5H56.5V17H56ZM56 1L56.2812 0.586537L55.5 0.0553512V1H56ZM79.5294 17.5H271V16.5H79.5294V17.5ZM270.5 17V107H271.5V17H270.5ZM271 106.5H1V107.5H271V106.5ZM1.5 107V17H0.5V107H1.5ZM1 17.5H56V16.5H1V17.5ZM56.5 17V1H55.5V17H56.5ZM55.7188 1.41346L79.2483 17.4135L79.8106 16.5866L56.2812 0.586537L55.7188 1.41346Z" fill="#ECE8E1"/>
</svg>
