<svg width="270" height="106" viewBox="0 0 270 106" fill="none" xmlns="http://www.w3.org/2000/svg">
<mask id="path-1-inside-1_1_2147" fill="white">
<path fill-rule="evenodd" clip-rule="evenodd" d="M78.5294 16H270V106H0V16H55V0L78.5294 16Z"/>
</mask>
<path fill-rule="evenodd" clip-rule="evenodd" d="M78.5294 16H270V106H0V16H55V0L78.5294 16Z" fill="white" fill-opacity="0.15"/>
<path d="M78.5294 16L77.9671 16.827L78.2217 17H78.5294V16ZM270 16H271V15H270V16ZM270 106V107H271V106H270ZM0 106H-1V107H0V106ZM0 16V15H-1V16H0ZM55 16V17H56V16H55ZM55 0L55.5623 -0.826926L54 -1.8893V0H55ZM78.5294 17H270V15H78.5294V17ZM269 16V106H271V16H269ZM270 105H0V107H270V105ZM1 106V16H-1V106H1ZM0 17H55V15H0V17ZM56 16V0H54V16H56ZM54.4377 0.826926L77.9671 16.827L79.0918 15.1731L55.5623 -0.826926L54.4377 0.826926Z" fill="#ECE8E1" mask="url(#path-1-inside-1_1_2147)"/>
</svg>
