<svg width="192" height="69" viewBox="0 0 192 69" fill="none" xmlns="http://www.w3.org/2000/svg">
<g filter="url(#filter0_b_1_170)">
<mask id="path-1-outside-1_1_170" maskUnits="userSpaceOnUse" x="0" y="0" width="192" height="69" fill="black">
<rect fill="white" width="192" height="69"/>
<path fill-rule="evenodd" clip-rule="evenodd" d="M56 2V15H191V68H1V15H36L56 2Z"/>
</mask>
<path fill-rule="evenodd" clip-rule="evenodd" d="M56 2V15H191V68H1V15H36L56 2Z" fill="white" fill-opacity="0.1"/>
<path d="M56 15H55V16H56V15ZM56 2H57V0.157314L55.455 1.16156L56 2ZM191 15H192V14H191V15ZM191 68V69H192V68H191ZM1 68H0V69H1V68ZM1 15V14H0V15H1ZM36 15V16H36.2964L36.545 15.8384L36 15ZM57 15V2H55V15H57ZM56 16H191V14H56V16ZM190 15V68H192V15H190ZM191 67H1V69H191V67ZM2 68V15H0V68H2ZM1 16H36V14H1V16ZM55.455 1.16156L35.455 14.1616L36.545 15.8384L56.545 2.83844L55.455 1.16156Z" fill="#ECE8E1" mask="url(#path-1-outside-1_1_170)"/>
</g>
<defs>
<filter id="filter0_b_1_170" x="-20" y="-19.8428" width="232" height="108.843" filterUnits="userSpaceOnUse" color-interpolation-filters="sRGB">
<feFlood flood-opacity="0" result="BackgroundImageFix"/>
<feGaussianBlur in="BackgroundImageFix" stdDeviation="10"/>
<feComposite in2="SourceAlpha" operator="in" result="effect1_backgroundBlur_1_170"/>
<feBlend mode="normal" in="SourceGraphic" in2="effect1_backgroundBlur_1_170" result="shape"/>
</filter>
</defs>
</svg>
