<svg width="37" height="15" viewBox="0 0 37 15" fill="none" xmlns="http://www.w3.org/2000/svg">
<path d="M9.05792 0H12.1109V9.60488C12.1109 12.844 9.67459 15.0102 6.04536 15C2.40601 15.0102 0 12.844 0 9.60488V0H3.03279V9.35965C3.0429 11.066 4.23579 12.2922 6.04536 12.3024C7.87514 12.2922 9.06803 11.066 9.05792 9.35965V0Z" fill="#FF4655"/>
<path d="M14.5776 14.7956V0H20.3197C23.6456 0 25.5563 1.89032 25.5563 4.82288C25.5563 6.84603 24.6363 8.31742 22.9683 9.04289L26.082 14.7956H22.7257L19.9254 9.54357H17.6104V14.7956H14.5776ZM17.6104 7.05039H19.7536C21.553 7.05039 22.4325 6.30448 22.4224 4.82288C22.4325 3.33105 21.553 2.52384 19.7536 2.51362H17.6104V7.05039Z" fill="#FF4655"/>
<path d="M27.659 14.7956V0H30.6918V12.2616H37V14.7956H27.659Z" fill="#FF4655"/>
</svg>
