<svg width="2" height="10" viewBox="0 0 2 10" fill="none" xmlns="http://www.w3.org/2000/svg">
<path d="M1.85714 1.80439H0.142857C0.0571429 1.80439 0 1.74373 0 1.65276V0.151629C0 0.0606508 0.0571429 0 0.142857 0H1.85714C1.94286 0 2 0.0606508 2 0.151629V1.65276C2 1.74373 1.94286 1.80439 1.85714 1.80439ZM1.85714 10H0.142857C0.0571429 10 0 9.93935 0 9.84837V3.81278C0 3.7218 0.0571429 3.66115 0.142857 3.66115H1.85714C1.94286 3.66115 2 3.7218 2 3.81278V9.84837C2 9.93935 1.94286 10 1.85714 10Z" fill="#ECE8E1"/>
</svg>
