<svg width="4" height="16" viewBox="0 0 4 16" fill="none" xmlns="http://www.w3.org/2000/svg">
<path d="M3.32387 2.65799H0.683867C0.551867 2.65799 0.463867 2.56999 0.463867 2.43799V0.259993C0.463867 0.127992 0.551867 0.0399933 0.683867 0.0399933H3.32387C3.45587 0.0399933 3.54387 0.127992 3.54387 0.259993V2.43799C3.54387 2.56999 3.45587 2.65799 3.32387 2.65799ZM3.32387 16H0.683867C0.551867 16 0.463867 15.912 0.463867 15.78V5.57199C0.463867 5.43999 0.551867 5.35199 0.683867 5.35199H3.32387C3.45587 5.35199 3.54387 5.43999 3.54387 5.57199V15.78C3.54387 15.912 3.45587 16 3.32387 16Z" fill="#ECE8E1"/>
</svg>
