<svg width="15" height="11" viewBox="0 0 15 11" fill="none" xmlns="http://www.w3.org/2000/svg">
<g clip-path="url(#clip0_1_2267)">
<mask id="path-1-inside-1_1_2267" fill="white">
<path fill-rule="evenodd" clip-rule="evenodd" d="M185 -33H-20V1H0L1.90735e-06 11L14.6667 1H185V-33Z"/>
</mask>
<path fill-rule="evenodd" clip-rule="evenodd" d="M185 -33H-20V1H0L1.90735e-06 11L14.6667 1H185V-33Z" fill="white" fill-opacity="0.15"/>
<path d="M-20 -33V-34H-21V-33H-20ZM185 -33H186V-34H185V-33ZM-20 1H-21V2H-20V1ZM0 1L1 1L1 0H0V1ZM1.90735e-06 11L-0.999998 11L-0.999998 12.8921L0.563339 11.8262L1.90735e-06 11ZM14.6667 1V0H14.3582L14.1033 0.173773L14.6667 1ZM185 1V2H186V1H185ZM-20 -32H185V-34H-20V-32ZM-19 1V-33H-21V1H-19ZM0 0H-20V2H0V0ZM-1 1L-0.999998 11L1 11L1 1L-1 1ZM0.563339 11.8262L15.23 1.82623L14.1033 0.173773L-0.563335 10.1738L0.563339 11.8262ZM185 0H14.6667V2H185V0ZM184 -33V1H186V-33H184Z" fill="#FF4655" mask="url(#path-1-inside-1_1_2267)"/>
</g>
<defs>
<clipPath id="clip0_1_2267">
<rect width="1920" height="848" fill="white" transform="translate(-406 -386)"/>
</clipPath>
</defs>
</svg>
